PathFileType	4	(X/Y/Z)	C:\Users\WrightLab\Desktop\Jo\P2_Trial34.trc
DataRate	CameraRate	NumFrames	NumMarkers	Units	OrigDataRate	OrigDataStartFrame	OrigNumFrames
100.00	100.00	       19	19	mm	100.00	415	       663
Frame#	Time	Headset_Front			Headset_Back			Headset_Left			Headset_Right			Left_Shoulder			Right_Shoulder			Sternum			C7			Left Elbow			Right Elbow			Left Wrist			Right Wrist			Left ASIS			Right ASIS			S2			Left Knee			Right Knee			Left Ankle			Right Ankle			
		X1	Y1	Z1	X2	Y2	Z2	X3	Y3	Z3	X4	Y4	Z4	X5	Y5	Z5	X6	Y6	Z6	X7	Y7	Z7	X8	Y8	Z8	X9	Y9	Z9	X10	Y10	Z10	X11	Y11	Z11	X12	Y12	Z12	X13	Y13	Z13	X14	Y14	Z14	X15	Y15	Z15	X16	Y16	Z16	X17	Y17	Z17	X18	Y18	Z18	X19	Y19	Z19	

415	4.140	30.31434	1402.34094	1298.72681	25.20052	1675.66211	1156.97852				-76.69532	1503.74158	1266.00232	130.74979	1456.59265	988.62964	-138.84158	1422.40356	1170.51880	40.50475	1319.81250	1129.24390	-74.87355	1431.68408	994.27045	225.35426	1115.48291	872.48480	-216.10347	1100.68726	1219.60669	233.97865	878.73566	809.35083	-182.89539	888.44476	1327.21167	127.21314	1032.48755	1116.21643	17.12387	994.06781	1188.05103	-39.19423	940.74121	922.62933	227.00551	483.56116	1084.23792	-147.49475	522.74561	1064.08960	340.57526	191.93872	1191.76392				
416	4.150	34.67063	1403.01477	1309.77344	31.20833	1676.48108	1167.84729				-71.35814	1504.43884	1275.34692	137.85513	1458.13135	999.46106	-132.25145	1423.47888	1178.51868	47.08148	1321.30457	1137.77783	-68.15114	1433.40625	1003.33600	232.95303	1117.11816	884.57959	-208.36780	1101.32544	1225.36804	243.03949	880.45337	821.90820	-176.72458	889.29828	1332.18665	133.08397	1034.59424	1125.56567	22.43825	995.56873	1195.89624	-31.96279	942.10864	930.62152	237.87810	485.39166	1093.51660	-131.39987	523.51984	1074.55603	338.83820	188.64565	1195.63501	-15.17917	945.85901	669.03351	
417	4.160	38.88042	1403.65283	1319.05981	37.24419	1677.22754	1178.40564				-67.50496	1505.85254	1285.24658	144.44167	1459.98828	1010.74731	-127.02855	1425.17468	1186.26526	52.56903	1322.42761	1147.82556	-61.44685	1434.74463	1012.15125	240.51311	1119.28430	895.91614	-201.79668	1103.04248	1231.10510	250.43729	883.09906	835.42688	-171.58562	890.52155	1337.07214	138.62538	1037.09668	1135.41589	27.18480	997.79474	1204.30054	-24.33337	943.45819	938.94763	247.01971	486.84738	1101.83765	-115.64803	524.05505	1085.12708	336.65833	185.02341	1200.15247				
418	4.170	42.73762	1403.66956	1328.67419	42.69621	1678.21326	1188.80444				-62.55755	1507.04358	1294.85156	151.53261	1461.59619	1022.03601	-123.47377	1426.70129	1194.29480	57.81660	1324.56519	1159.63855	-54.37998	1436.66211	1020.65259	248.82764	1121.23608	908.12585	-195.47412	1104.01416	1236.13855	261.10690	883.73553	848.75732	-166.23688	890.71045	1340.84131	143.38351	1039.35742	1145.41528	30.41938	999.58563	1212.18481	-16.95341	944.95044	946.65680	256.94366	487.94305	1109.77576	-99.65417	524.22699	1095.58301	334.12964	180.97751	1203.78162				
419	4.180	46.31799	1405.03857	1338.57544	48.05375	1679.41016	1199.06470				-57.70984	1507.99414	1304.31470	157.98294	1463.38965	1033.37012	-118.55911	1428.00220	1201.50745	63.19232	1325.59436	1168.26318	-47.93608	1438.37585	1029.35229	256.82874	1123.03638	920.94586	-190.34850	1105.22314	1240.93909	271.07538	885.68152	862.70392	-161.88762	891.25012	1344.23096	148.23244	1040.57141	1155.01416	34.15187	1002.20441	1220.27600	-8.13740	946.23566	954.48376	266.47125	489.47922	1117.40564	-84.10985	525.20856	1105.96057	332.45001	176.77365	1207.49207				
420	4.190	49.94559	1405.95142	1348.35950	52.57392	1680.81714	1209.45251				-54.47137	1509.32959	1313.46997	164.66788	1465.02026	1044.42896	-115.32330	1429.85022	1208.82019	67.38005	1327.19495	1178.51892	-40.89734	1440.16260	1037.34229	264.67145	1124.35022	933.38232	-185.51083	1106.29077	1244.86487	280.08896	888.82526	877.17334	-157.99352	891.41858	1346.84680	151.56044	1042.54871	1166.89197	36.64263	1003.59906	1227.23596	-0.23158	948.24786	961.56506	275.64087	489.53763	1124.25037	-68.60333	526.43848	1116.43079	330.48676	171.99261	1209.56018	-98.02546	751.71002	1396.92834	
421	4.200	53.69080	1407.02966	1358.32593	56.39308	1682.31494	1219.81165				-50.56852	1510.45520	1322.50330	170.76715	1466.97070	1056.58313	-111.62814	1431.42017	1215.63977	72.11413	1329.48865	1189.08484	-34.54943	1442.29590	1045.69556	273.05707	1126.85864	946.43604	-182.08130	1107.72559	1248.63110	290.25467	889.05884	891.09131	-154.20735	891.30261	1349.15491	155.65594	1044.25989	1176.78247	38.58224	1005.19598	1235.91138	7.78107	949.59369	968.21948	284.57724	490.55658	1132.17542	-53.38250	527.72888	1127.25354	328.25381	167.51245	1212.24988				
422	4.210	56.24506	1408.17090	1368.05981	61.43681	1683.56519	1230.10852				-47.29534	1511.66724	1331.59033	177.03749	1468.94800	1067.76868	-108.69511	1433.09106	1222.64978	75.15829	1330.71997	1198.60034	-28.03516	1444.70007	1053.92981	281.71213	1129.03137	959.81342	-178.51970	1108.85193	1251.57678	299.19241	891.74628	905.37915	-151.74670	891.34314	1350.54724	157.96999	1045.04028	1187.47278	40.91368	1007.46283	1244.79834	16.11709	951.41492	976.03387	293.44431	491.92795	1139.32227	-39.10154	530.87860	1138.40710	326.53412	162.51082	1213.72742				
423	4.220	58.97882	1409.63977	1377.69019	64.17648	1685.65527	1240.42249				-44.58268	1513.27356	1340.83386	183.13545	1470.91943	1079.34045	-106.07392	1435.07275	1229.30139	78.95997	1332.64648	1207.87549	-21.89654	1447.59778	1062.29346	289.94418	1131.46228	972.76312	-175.53285	1109.92371	1254.31677	309.48917	893.90820	920.64026	-149.25476	891.03455	1351.99854	160.60292	1045.54004	1198.39661	42.74600	1009.60803	1253.91870	23.05468	954.12860	983.16943	302.59540	492.35095	1144.90320	-24.54160	533.87634	1150.01941	324.03525	158.20630	1215.07007				
424	4.230	61.76564	1411.26184	1387.31909	68.10046	1687.41577	1250.42383				-41.49892	1514.67444	1349.70740	189.00761	1472.91125	1091.36035	-102.17816	1436.68494	1235.71509	81.76904	1334.59229	1217.36389	-15.44406	1450.06335	1069.97729	298.61252	1133.45789	986.72961	-173.43356	1111.66748	1256.97400	319.35278	895.92957	935.97168	-147.38684	891.67029	1352.53076	163.70451	1047.21362	1208.93262	43.58841	1011.06476	1261.27258	29.73881	956.98804	990.32959	312.22803	493.09308	1151.40894	-10.80608	537.82483	1162.46521	322.16330	154.83492	1215.32947	-66.78214	756.98389	1387.18140	
425	4.240	63.99984	1412.96362	1397.33875	71.46228	1689.19080	1260.53076				-39.10022	1515.23096	1354.22498	194.63884	1475.13245	1102.94836	-99.65321	1438.92786	1242.07849	85.53687	1336.62537	1226.58630	-9.34681	1453.01636	1078.21082	306.46002	1135.74939	999.62109	-171.09755	1112.99536	1259.08020	330.49750	896.38330	951.50745	-145.33803	891.36407	1352.27014	166.37019	1049.03333	1219.63342	44.90476	1013.20941	1268.67346	35.98929	959.98657	997.10071	320.92114	494.26395	1156.87439	2.37063	542.98871	1175.31287	320.44583	150.59853	1214.96582				
426	4.250	65.60941	1414.32654	1406.66833	73.65675	1690.80554	1270.64417				-36.86153	1516.25183	1362.24023	200.29005	1477.30347	1114.61829	-96.55869	1441.21606	1248.37952	88.03771	1338.41528	1236.10840	-3.27062	1455.79602	1086.19702	314.74719	1138.77307	1014.14154	-167.95570	1113.80225	1260.63428	340.18417	899.51239	967.75934	-143.86839	892.12170	1351.85010	168.02039	1049.71851	1229.56201	46.38186	1014.92725	1277.17493	42.02704	963.20459	1004.18524	330.59897	495.48169	1163.63464	12.78295	550.00537	1189.53845	319.39511	148.56505	1214.38245				
427	4.260	67.37312	1415.35962	1415.49695	77.08420	1692.68701	1280.59412				-35.11729	1518.18677	1370.39148	205.74855	1479.61768	1126.09607	-93.65544	1443.48828	1254.70313	90.37414	1340.21228	1244.83264	2.56005	1458.52820	1094.05701	324.14792	1141.68164	1029.50647	-166.63345	1116.72839	1262.64392	350.23355	901.85443	981.21533	-142.20148	892.62433	1351.11975	170.73822	1052.35510	1237.96741	47.50390	1016.99097	1285.37317	46.70815	966.42755	1011.96179	337.25241	497.36292	1169.19409	24.58733	556.21796	1202.66675	318.70749	146.89078	1214.12122				
428	4.270	68.62334	1417.08618	1424.37720	80.46966	1694.40112	1290.44067				-33.14039	1519.09253	1378.20020	211.01147	1482.07361	1137.84412	-90.84223	1445.76550	1260.83472	93.51101	1342.47778	1253.30127	8.67398	1461.38538	1101.82227	331.23203	1144.07910	1042.11304	-163.54356	1118.20105	1264.19653	360.99234	904.90692	1001.10858	-140.28162	893.75000	1350.51123	172.93723	1054.36548	1247.07092	49.31308	1019.33679	1292.40015	51.86703	968.99921	1019.71405	343.06860	499.35751	1175.77563	36.57725	562.35284	1216.69006	319.23825	145.34071	1213.74219	393.68658	803.84644	1069.31201	
429	4.280	70.06268	1418.59937	1433.31995	82.35281	1696.79236	1300.45203				-31.86941	1520.62048	1386.64124	216.12070	1484.17969	1149.10803	-87.58240	1448.04395	1267.06934	96.46976	1344.98694	1262.04114	14.67655	1464.28845	1109.56860	339.16489	1147.00366	1056.23120	-161.83742	1120.56592	1265.69666	371.07486	907.84045	1018.70093	-140.33157	894.83270	1349.58740	174.58167	1056.84839	1256.06677	51.19953	1021.04742	1300.26111	55.66606	972.34088	1027.09082	348.04993	500.65060	1180.99170	45.28385	570.49902	1231.68420	320.69730	145.60541	1214.34534				
430	4.290	71.19006	1419.92859	1442.44983	84.88239	1698.54553	1310.49365				-30.32142	1522.07825	1393.93726	220.81223	1486.76343	1160.87500	-84.62421	1450.26855	1273.33960	98.82352	1346.30725	1270.59705	20.23144	1466.88306	1117.64417	346.55524	1149.75830	1072.57874	-160.24225	1123.54700	1267.76685	380.98660	910.30121	1035.99988	-138.99547	896.01880	1348.11243	177.54752	1059.58386	1263.90002	53.44789	1024.04822	1309.28845	59.73303	974.43677	1034.68701	351.83099	501.78455	1185.81140	54.68116	577.44080	1246.82495	321.94855	147.21159	1214.59937				
431	4.300	71.74210	1420.48865	1449.50598	86.77317	1700.64966	1320.44531				-29.02605	1523.87183	1401.04260	225.61760	1489.04053	1172.64661	-82.44153	1452.67822	1279.53943	101.17006	1348.39539	1279.03906	25.49898	1469.37500	1125.98120	354.82959	1152.50085	1087.99915	-157.73280	1125.60889	1268.70618	390.92047	912.90540	1055.44470	-138.68375	896.03906	1346.34558	180.46405	1062.60291	1272.76660	55.56907	1026.74780	1315.14539	63.53790	977.23431	1042.68750	355.15781	502.05951	1190.54834	61.97127	585.47284	1263.73926	323.07993	148.58072	1215.35693				
432	4.310	71.22810	1423.07800	1457.08911	194.15460	1574.42163	1378.77466				-28.43152	1524.88086	1408.99988	229.62193	1491.04846	1184.03271	-79.65141	1454.77673	1285.63623	103.68941	1350.28723	1286.71497	31.21454	1471.65930	1133.78845	362.03720	1154.95630	1103.02332	-155.55420	1127.75977	1270.34436	401.48053	916.39374	1074.61108	-138.91418	896.93616	1344.79932	182.93538	1064.95557	1281.54712	57.56963	1029.32837	1322.27466	67.37232	979.61462	1050.09485	357.34903	502.03741	1193.82190	68.41127	591.60699	1282.57153	323.49368	149.83409	1214.80896	441.91495	807.61420	1120.73254	
433	4.320	72.23640	1423.57568	1467.90784	195.95459	1575.85461	1390.37830				-27.74560	1526.65686	1416.60071	233.78726	1492.37000	1195.63940	-77.07744	1456.88220	1291.68372	105.45769	1352.02637	1297.03442	36.10255	1473.83752	1142.22693	370.48984	1157.38916	1118.98083	-154.25127	1130.65637	1272.03918	410.89511	918.96777	1092.47766	-138.22197	898.17627	1343.14771	185.60423	1066.72351	1288.82800	58.80855	1032.41907	1329.98840	71.18081	982.04083	1057.08704	359.15323	503.05176	1198.55566	71.00539	597.70758	1298.71582	324.08801	150.82991	1215.22986				
